<svg width="452" height="210" viewBox="0 0 452 210" xmlns="http://www.w3.org/2000/svg">
<rect x="0.5" y="0.5" width="451" height="209" rx="10" fill="#1a1b27" stroke="#2f334d" stroke-width="1"/>
<style>@keyframes fadeIn { from { opacity: 0; } to { opacity: 1; } }
.row { animation: fadeIn 0.6s ease-out backwards; }
.row:nth-of-type(2) { animation-delay: 120ms; }
.row:nth-of-type(3) { animation-delay: 240ms; }
</style>
<g>
<path d="M3 17l6-6 4 4 8-8v5h2V4h-8v2h5l-7 7-4-4-8 8z" fill="#7aa2f7" transform="translate(22,18)" width="24" height="24"/>
<text x="54" y="30" font-family="'Segoe UI', Ubuntu, 'Helvetica Neue', sans-serif" font-size="16" font-weight="600" fill="#7aa2f7">Growth</text>
</g>
<g class="row">
<text x="22" y="82" font-family="'Segoe UI', Ubuntu, 'Helvetica Neue', sans-serif" font-size="12" fill="#565f89">Contributions</text>
<polyline points="130.0,66.3 135.6,66.0 141.1,66.0 146.7,66.0 152.2,92.0 157.8,92.0 163.3,92.0 168.9,92.0 174.4,92.0 180.0,92.0 185.6,92.0 191.1,92.0 196.7,92.0 202.2,92.0 207.8,92.0 213.3,92.0 218.9,92.0 224.4,92.0 230.0,91.8 235.6,91.8 241.1,91.7 246.7,91.5 252.2,91.5 257.8,91.5 263.3,91.4 268.9,91.4 274.4,91.4 280.0,91.3 285.6,91.3 291.1,91.2 296.7,91.2 302.2,91.2 307.8,91.2 313.3,91.1 318.9,91.1 324.4,91.0 330.0,91.0" fill="none" stroke="#7aa2f7" stroke-width="1.8" stroke-linejoin="round" stroke-linecap="round"/><circle cx="330.0" cy="91.0" r="2.5" fill="#7aa2f7"/>
<text x="386" y="82" text-anchor="end" font-family="'Segoe UI', Ubuntu, 'Helvetica Neue', sans-serif" font-size="14" font-weight="700" fill="#c0caf5">147</text>
<text x="430" y="82" text-anchor="end" font-family="'Segoe UI', Ubuntu, 'Helvetica Neue', sans-serif" font-size="11" font-weight="600" fill="#7aa2f7">-1331</text>
</g>
<g class="row">
<text x="22" y="126" font-family="'Segoe UI', Ubuntu, 'Helvetica Neue', sans-serif" font-size="12" fill="#565f89">Stars</text>
<polyline points="130.0,120.4 135.6,120.4 141.1,110.0 146.7,110.0 152.2,136.0 157.8,136.0 163.3,136.0 168.9,136.0 174.4,136.0 180.0,136.0 185.6,136.0 191.1,136.0 196.7,136.0 202.2,136.0 207.8,136.0 213.3,136.0 218.9,136.0 224.4,136.0 230.0,133.4 235.6,133.4 241.1,133.4 246.7,133.4 252.2,133.4 257.8,133.4 263.3,133.4 268.9,133.4 274.4,133.4 280.0,133.4 285.6,133.4 291.1,136.0 296.7,136.0 302.2,136.0 307.8,136.0 313.3,136.0 318.9,136.0 324.4,136.0 330.0,136.0" fill="none" stroke="#ff9e64" stroke-width="1.8" stroke-linejoin="round" stroke-linecap="round"/><circle cx="330.0" cy="136.0" r="2.5" fill="#ff9e64"/>
<text x="386" y="126" text-anchor="end" font-family="'Segoe UI', Ubuntu, 'Helvetica Neue', sans-serif" font-size="14" font-weight="700" fill="#c0caf5">3</text>
<text x="430" y="126" text-anchor="end" font-family="'Segoe UI', Ubuntu, 'Helvetica Neue', sans-serif" font-size="11" font-weight="600" fill="#ff9e64">-6</text>
</g>
<g class="row">
<text x="22" y="170" font-family="'Segoe UI', Ubuntu, 'Helvetica Neue', sans-serif" font-size="12" fill="#565f89">Followers</text>
<polyline points="130.0,160.5 135.6,160.5 141.1,154.0 146.7,154.0 152.2,180.0 157.8,180.0 163.3,180.0 168.9,180.0 174.4,180.0 180.0,180.0 185.6,180.0 191.1,180.0 196.7,180.0 202.2,180.0 207.8,180.0 213.3,180.0 218.9,180.0 224.4,180.0 230.0,180.0 235.6,180.0 241.1,180.0 246.7,180.0 252.2,180.0 257.8,180.0 263.3,180.0 268.9,180.0 274.4,180.0 280.0,180.0 285.6,180.0 291.1,180.0 296.7,180.0 302.2,180.0 307.8,180.0 313.3,180.0 318.9,173.5 324.4,173.5 330.0,173.5" fill="none" stroke="#73daca" stroke-width="1.8" stroke-linejoin="round" stroke-linecap="round"/><circle cx="330.0" cy="173.5" r="2.5" fill="#73daca"/>
<text x="386" y="170" text-anchor="end" font-family="'Segoe UI', Ubuntu, 'Helvetica Neue', sans-serif" font-size="14" font-weight="700" fill="#c0caf5">2</text>
<text x="430" y="170" text-anchor="end" font-family="'Segoe UI', Ubuntu, 'Helvetica Neue', sans-serif" font-size="11" font-weight="600" fill="#73daca">-2</text>
</g>
<text x="226" y="196" text-anchor="middle" font-family="'Segoe UI', Ubuntu, 'Helvetica Neue', sans-serif" font-size="10.5" fill="#565f89">2026-07-26 → 2026-09-01</text>
</svg>