<svg width="452" height="210" viewBox="0 0 452 210" xmlns="http://www.w3.org/2000/svg">
<rect x="0.5" y="0.5" width="451" height="209" rx="10" fill="#1a1b27" stroke="#2f334d" stroke-width="1"/>
<style>@keyframes fadeIn { from { opacity: 0; } to { opacity: 1; } }
.row { animation: fadeIn 0.6s ease-out backwards; }
.row:nth-of-type(2) { animation-delay: 120ms; }
.row:nth-of-type(3) { animation-delay: 240ms; }
</style>
<g>
<path d="M3 17l6-6 4 4 8-8v5h2V4h-8v2h5l-7 7-4-4-8 8z" fill="#7aa2f7" transform="translate(22,18)" width="24" height="24"/>
<text x="54" y="30" font-family="'Segoe UI', Ubuntu, 'Helvetica Neue', sans-serif" font-size="16" font-weight="600" fill="#7aa2f7">Growth</text>
</g>
<g class="row">
<text x="22" y="82" font-family="'Segoe UI', Ubuntu, 'Helvetica Neue', sans-serif" font-size="12" fill="#565f89">Contributions</text>
<polyline points="130.0,66.3 133.3,66.0 136.6,66.0 139.8,66.0 143.1,92.0 146.4,92.0 149.7,92.0 153.0,92.0 156.2,92.0 159.5,92.0 162.8,92.0 166.1,92.0 169.3,92.0 172.6,92.0 175.9,92.0 179.2,92.0 182.5,92.0 185.7,92.0 189.0,91.8 192.3,91.8 195.6,91.7 198.9,91.5 202.1,91.5 205.4,91.5 208.7,91.4 212.0,91.4 215.2,91.4 218.5,91.3 221.8,91.3 225.1,91.2 228.4,91.2 231.6,91.2 234.9,91.2 238.2,91.1 241.5,91.1 244.8,91.0 248.0,91.0 251.3,90.8 254.6,90.8 257.9,90.8 261.1,90.8 264.4,90.8 267.7,90.8 271.0,90.8 274.3,90.8 277.5,90.8 280.8,90.8 284.1,90.8 287.4,90.8 290.7,90.8 293.9,90.8 297.2,90.8 300.5,90.8 303.8,90.8 307.0,90.8 310.3,90.8 313.6,90.8 316.9,90.8 320.2,90.6 323.4,90.6 326.7,90.6 330.0,90.6" fill="none" stroke="#7aa2f7" stroke-width="1.8" stroke-linejoin="round" stroke-linecap="round"/><circle cx="330.0" cy="90.6" r="2.5" fill="#7aa2f7"/>
<text x="386" y="82" text-anchor="end" font-family="'Segoe UI', Ubuntu, 'Helvetica Neue', sans-serif" font-size="14" font-weight="700" fill="#c0caf5">167</text>
<text x="430" y="82" text-anchor="end" font-family="'Segoe UI', Ubuntu, 'Helvetica Neue', sans-serif" font-size="11" font-weight="600" fill="#7aa2f7">-1311</text>
</g>
<g class="row">
<text x="22" y="126" font-family="'Segoe UI', Ubuntu, 'Helvetica Neue', sans-serif" font-size="12" fill="#565f89">Stars</text>
<polyline points="130.0,120.4 133.3,120.4 136.6,110.0 139.8,110.0 143.1,136.0 146.4,136.0 149.7,136.0 153.0,136.0 156.2,136.0 159.5,136.0 162.8,136.0 166.1,136.0 169.3,136.0 172.6,136.0 175.9,136.0 179.2,136.0 182.5,136.0 185.7,136.0 189.0,133.4 192.3,133.4 195.6,133.4 198.9,133.4 202.1,133.4 205.4,133.4 208.7,133.4 212.0,133.4 215.2,133.4 218.5,133.4 221.8,133.4 225.1,136.0 228.4,136.0 231.6,136.0 234.9,136.0 238.2,136.0 241.5,136.0 244.8,136.0 248.0,136.0 251.3,136.0 254.6,136.0 257.9,136.0 261.1,136.0 264.4,136.0 267.7,136.0 271.0,136.0 274.3,136.0 277.5,136.0 280.8,136.0 284.1,136.0 287.4,136.0 290.7,136.0 293.9,136.0 297.2,136.0 300.5,136.0 303.8,136.0 307.0,136.0 310.3,136.0 313.6,136.0 316.9,136.0 320.2,136.0 323.4,136.0 326.7,136.0 330.0,136.0" fill="none" stroke="#ff9e64" stroke-width="1.8" stroke-linejoin="round" stroke-linecap="round"/><circle cx="330.0" cy="136.0" r="2.5" fill="#ff9e64"/>
<text x="386" y="126" text-anchor="end" font-family="'Segoe UI', Ubuntu, 'Helvetica Neue', sans-serif" font-size="14" font-weight="700" fill="#c0caf5">3</text>
<text x="430" y="126" text-anchor="end" font-family="'Segoe UI', Ubuntu, 'Helvetica Neue', sans-serif" font-size="11" font-weight="600" fill="#ff9e64">-6</text>
</g>
<g class="row">
<text x="22" y="170" font-family="'Segoe UI', Ubuntu, 'Helvetica Neue', sans-serif" font-size="12" fill="#565f89">Followers</text>
<polyline points="130.0,159.2 133.3,159.2 136.6,154.0 139.8,154.0 143.1,174.8 146.4,174.8 149.7,174.8 153.0,174.8 156.2,174.8 159.5,174.8 162.8,174.8 166.1,174.8 169.3,174.8 172.6,174.8 175.9,174.8 179.2,174.8 182.5,174.8 185.7,174.8 189.0,174.8 192.3,174.8 195.6,174.8 198.9,174.8 202.1,174.8 205.4,174.8 208.7,174.8 212.0,174.8 215.2,174.8 218.5,174.8 221.8,174.8 225.1,174.8 228.4,174.8 231.6,174.8 234.9,174.8 238.2,174.8 241.5,169.6 244.8,169.6 248.0,169.6 251.3,169.6 254.6,169.6 257.9,169.6 261.1,169.6 264.4,169.6 267.7,169.6 271.0,169.6 274.3,169.6 277.5,169.6 280.8,169.6 284.1,169.6 287.4,180.0 290.7,174.8 293.9,174.8 297.2,174.8 300.5,174.8 303.8,174.8 307.0,174.8 310.3,174.8 313.6,174.8 316.9,174.8 320.2,174.8 323.4,174.8 326.7,174.8 330.0,174.8" fill="none" stroke="#73daca" stroke-width="1.8" stroke-linejoin="round" stroke-linecap="round"/><circle cx="330.0" cy="174.8" r="2.5" fill="#73daca"/>
<text x="386" y="170" text-anchor="end" font-family="'Segoe UI', Ubuntu, 'Helvetica Neue', sans-serif" font-size="14" font-weight="700" fill="#c0caf5">1</text>
<text x="430" y="170" text-anchor="end" font-family="'Segoe UI', Ubuntu, 'Helvetica Neue', sans-serif" font-size="11" font-weight="600" fill="#73daca">-3</text>
</g>
<text x="226" y="196" text-anchor="middle" font-family="'Segoe UI', Ubuntu, 'Helvetica Neue', sans-serif" font-size="10.5" fill="#565f89">2026-07-26 → 2026-09-26</text>
</svg>