<svg width="452" height="210" viewBox="0 0 452 210" xmlns="http://www.w3.org/2000/svg">
<rect x="0.5" y="0.5" width="451" height="209" rx="10" fill="#ffffff" stroke="#d0d7de" stroke-width="1"/>
<style>@keyframes fadeIn { from { opacity: 0; } to { opacity: 1; } }
.row { animation: fadeIn 0.6s ease-out backwards; }
.row:nth-of-type(2) { animation-delay: 120ms; }
.row:nth-of-type(3) { animation-delay: 240ms; }
</style>
<g>
<path d="M3 17l6-6 4 4 8-8v5h2V4h-8v2h5l-7 7-4-4-8 8z" fill="#3d59a1" transform="translate(22,18)" width="24" height="24"/>
<text x="54" y="30" font-family="'Segoe UI', Ubuntu, 'Helvetica Neue', sans-serif" font-size="16" font-weight="600" fill="#3d59a1">Growth</text>
</g>
<g class="row">
<text x="22" y="82" font-family="'Segoe UI', Ubuntu, 'Helvetica Neue', sans-serif" font-size="12" fill="#6e7781">Contributions</text>
<polyline points="130.0,66.3 139.5,66.0 149.0,66.0 158.6,66.0 168.1,92.0 177.6,92.0 187.1,92.0 196.7,92.0 206.2,92.0 215.7,92.0 225.2,92.0 234.8,92.0 244.3,92.0 253.8,92.0 263.3,92.0 272.9,92.0 282.4,92.0 291.9,92.0 301.4,91.8 311.0,91.8 320.5,91.7 330.0,91.5" fill="none" stroke="#3d59a1" stroke-width="1.8" stroke-linejoin="round" stroke-linecap="round"/><circle cx="330.0" cy="91.5" r="2.5" fill="#3d59a1"/>
<text x="386" y="82" text-anchor="end" font-family="'Segoe UI', Ubuntu, 'Helvetica Neue', sans-serif" font-size="14" font-weight="700" fill="#24292f">117</text>
<text x="430" y="82" text-anchor="end" font-family="'Segoe UI', Ubuntu, 'Helvetica Neue', sans-serif" font-size="11" font-weight="600" fill="#3d59a1">-1361</text>
</g>
<g class="row">
<text x="22" y="126" font-family="'Segoe UI', Ubuntu, 'Helvetica Neue', sans-serif" font-size="12" fill="#6e7781">Stars</text>
<polyline points="130.0,120.4 139.5,120.4 149.0,110.0 158.6,110.0 168.1,136.0 177.6,136.0 187.1,136.0 196.7,136.0 206.2,136.0 215.7,136.0 225.2,136.0 234.8,136.0 244.3,136.0 253.8,136.0 263.3,136.0 272.9,136.0 282.4,136.0 291.9,136.0 301.4,133.4 311.0,133.4 320.5,133.4 330.0,133.4" fill="none" stroke="#b15c00" stroke-width="1.8" stroke-linejoin="round" stroke-linecap="round"/><circle cx="330.0" cy="133.4" r="2.5" fill="#b15c00"/>
<text x="386" y="126" text-anchor="end" font-family="'Segoe UI', Ubuntu, 'Helvetica Neue', sans-serif" font-size="14" font-weight="700" fill="#24292f">4</text>
<text x="430" y="126" text-anchor="end" font-family="'Segoe UI', Ubuntu, 'Helvetica Neue', sans-serif" font-size="11" font-weight="600" fill="#b15c00">-5</text>
</g>
<g class="row">
<text x="22" y="170" font-family="'Segoe UI', Ubuntu, 'Helvetica Neue', sans-serif" font-size="12" fill="#6e7781">Followers</text>
<polyline points="130.0,160.5 139.5,160.5 149.0,154.0 158.6,154.0 168.1,180.0 177.6,180.0 187.1,180.0 196.7,180.0 206.2,180.0 215.7,180.0 225.2,180.0 234.8,180.0 244.3,180.0 253.8,180.0 263.3,180.0 272.9,180.0 282.4,180.0 291.9,180.0 301.4,180.0 311.0,180.0 320.5,180.0 330.0,180.0" fill="none" stroke="#0f766e" stroke-width="1.8" stroke-linejoin="round" stroke-linecap="round"/><circle cx="330.0" cy="180.0" r="2.5" fill="#0f766e"/>
<text x="386" y="170" text-anchor="end" font-family="'Segoe UI', Ubuntu, 'Helvetica Neue', sans-serif" font-size="14" font-weight="700" fill="#24292f">1</text>
<text x="430" y="170" text-anchor="end" font-family="'Segoe UI', Ubuntu, 'Helvetica Neue', sans-serif" font-size="11" font-weight="600" fill="#0f766e">-3</text>
</g>
<text x="226" y="196" text-anchor="middle" font-family="'Segoe UI', Ubuntu, 'Helvetica Neue', sans-serif" font-size="10.5" fill="#6e7781">2026-07-26 → 2026-08-17</text>
</svg>