<svg width="452" height="210" viewBox="0 0 452 210" xmlns="http://www.w3.org/2000/svg">
<rect x="0.5" y="0.5" width="451" height="209" rx="10" fill="#ffffff" stroke="#d0d7de" stroke-width="1"/>
<style>@keyframes fadeIn { from { opacity: 0; } to { opacity: 1; } }
.row { animation: fadeIn 0.6s ease-out backwards; }
.row:nth-of-type(2) { animation-delay: 120ms; }
.row:nth-of-type(3) { animation-delay: 240ms; }
</style>
<g>
<path d="M3 17l6-6 4 4 8-8v5h2V4h-8v2h5l-7 7-4-4-8 8z" fill="#3d59a1" transform="translate(22,18)" width="24" height="24"/>
<text x="54" y="30" font-family="'Segoe UI', Ubuntu, 'Helvetica Neue', sans-serif" font-size="16" font-weight="600" fill="#3d59a1">Growth</text>
</g>
<g class="row">
<text x="22" y="82" font-family="'Segoe UI', Ubuntu, 'Helvetica Neue', sans-serif" font-size="12" fill="#6e7781">Contributions</text>
<polyline points="130.0,66.3 135.7,66.0 141.4,66.0 147.1,66.0 152.9,92.0 158.6,92.0 164.3,92.0 170.0,92.0 175.7,92.0 181.4,92.0 187.1,92.0 192.9,92.0 198.6,92.0 204.3,92.0 210.0,92.0 215.7,92.0 221.4,92.0 227.1,92.0 232.9,91.8 238.6,91.8 244.3,91.7 250.0,91.5 255.7,91.5 261.4,91.5 267.1,91.4 272.9,91.4 278.6,91.4 284.3,91.3 290.0,91.3 295.7,91.2 301.4,91.2 307.1,91.2 312.9,91.2 318.6,91.1 324.3,91.1 330.0,91.0" fill="none" stroke="#3d59a1" stroke-width="1.8" stroke-linejoin="round" stroke-linecap="round"/><circle cx="330.0" cy="91.0" r="2.5" fill="#3d59a1"/>
<text x="386" y="82" text-anchor="end" font-family="'Segoe UI', Ubuntu, 'Helvetica Neue', sans-serif" font-size="14" font-weight="700" fill="#24292f">147</text>
<text x="430" y="82" text-anchor="end" font-family="'Segoe UI', Ubuntu, 'Helvetica Neue', sans-serif" font-size="11" font-weight="600" fill="#3d59a1">-1331</text>
</g>
<g class="row">
<text x="22" y="126" font-family="'Segoe UI', Ubuntu, 'Helvetica Neue', sans-serif" font-size="12" fill="#6e7781">Stars</text>
<polyline points="130.0,120.4 135.7,120.4 141.4,110.0 147.1,110.0 152.9,136.0 158.6,136.0 164.3,136.0 170.0,136.0 175.7,136.0 181.4,136.0 187.1,136.0 192.9,136.0 198.6,136.0 204.3,136.0 210.0,136.0 215.7,136.0 221.4,136.0 227.1,136.0 232.9,133.4 238.6,133.4 244.3,133.4 250.0,133.4 255.7,133.4 261.4,133.4 267.1,133.4 272.9,133.4 278.6,133.4 284.3,133.4 290.0,133.4 295.7,136.0 301.4,136.0 307.1,136.0 312.9,136.0 318.6,136.0 324.3,136.0 330.0,136.0" fill="none" stroke="#b15c00" stroke-width="1.8" stroke-linejoin="round" stroke-linecap="round"/><circle cx="330.0" cy="136.0" r="2.5" fill="#b15c00"/>
<text x="386" y="126" text-anchor="end" font-family="'Segoe UI', Ubuntu, 'Helvetica Neue', sans-serif" font-size="14" font-weight="700" fill="#24292f">3</text>
<text x="430" y="126" text-anchor="end" font-family="'Segoe UI', Ubuntu, 'Helvetica Neue', sans-serif" font-size="11" font-weight="600" fill="#b15c00">-6</text>
</g>
<g class="row">
<text x="22" y="170" font-family="'Segoe UI', Ubuntu, 'Helvetica Neue', sans-serif" font-size="12" fill="#6e7781">Followers</text>
<polyline points="130.0,160.5 135.7,160.5 141.4,154.0 147.1,154.0 152.9,180.0 158.6,180.0 164.3,180.0 170.0,180.0 175.7,180.0 181.4,180.0 187.1,180.0 192.9,180.0 198.6,180.0 204.3,180.0 210.0,180.0 215.7,180.0 221.4,180.0 227.1,180.0 232.9,180.0 238.6,180.0 244.3,180.0 250.0,180.0 255.7,180.0 261.4,180.0 267.1,180.0 272.9,180.0 278.6,180.0 284.3,180.0 290.0,180.0 295.7,180.0 301.4,180.0 307.1,180.0 312.9,180.0 318.6,180.0 324.3,173.5 330.0,173.5" fill="none" stroke="#0f766e" stroke-width="1.8" stroke-linejoin="round" stroke-linecap="round"/><circle cx="330.0" cy="173.5" r="2.5" fill="#0f766e"/>
<text x="386" y="170" text-anchor="end" font-family="'Segoe UI', Ubuntu, 'Helvetica Neue', sans-serif" font-size="14" font-weight="700" fill="#24292f">2</text>
<text x="430" y="170" text-anchor="end" font-family="'Segoe UI', Ubuntu, 'Helvetica Neue', sans-serif" font-size="11" font-weight="600" fill="#0f766e">-2</text>
</g>
<text x="226" y="196" text-anchor="middle" font-family="'Segoe UI', Ubuntu, 'Helvetica Neue', sans-serif" font-size="10.5" fill="#6e7781">2026-07-26 → 2026-08-31</text>
</svg>